<?xml version="1.0" encoding="utf-8"?>
<!-- Generator: Adobe Illustrator 16.0.3, SVG Export Plug-In . SVG Version: 6.00 Build 0)  -->
<!DOCTYPE svg PUBLIC "-//W3C//DTD SVG 1.1//EN" "http://www.w3.org/Graphics/SVG/1.1/DTD/svg11.dtd">
<svg version="1.1" id="Layer_1" xmlns="http://www.w3.org/2000/svg" xmlns:xlink="http://www.w3.org/1999/xlink" x="0px" y="0px"
	 width="595.281px" height="841.891px" viewBox="0 0 595.281 841.891" enable-background="new 0 0 595.281 841.891"
	 xml:space="preserve">
<circle fill="#33CCFF" cx="297.64" cy="420.946" r="297.64"/>
<path fill="#3366FF" d="M439.099,393.259c-5.016-5.063-11.732-7.866-18.879-7.866h-2.215l-20.787-20.791h-61.846l-88.59-88.61
	c0,0,0,0-0.042,0.042c-0.131,0.086-0.384,0.256-0.849,0.509c-0.441,0.254-1.042,0.666-1.7,1.148l-36.613-36.605
	c0,0-0.468,0.253-1.28,0.759c-0.845,0.474-1.994,1.274-3.44,2.385c-1.404,1.146-3.102,2.593-4.759,4.548
	c-1.7,2-3.446,4.507-4.852,7.569c-1.36,3.063-2.295,6.802-2.551,10.712c-0.125,1.999-0.044,4,0.169,6.042
	c0.172,2.039,0.557,4.083,1.065,6.075c0.979,3.997,2.425,7.908,4.129,11.651c1.7,3.7,3.568,7.315,5.489,10.712
	c1.864,3.491,3.78,6.804,5.524,9.994c1.696,3.274,3.23,6.379,4.461,9.399c0.595,1.526,1.107,3.021,1.574,4.468
	c0.426,1.444,0.723,2.891,0.931,4.289c0.262,1.404,0.384,2.805,0.384,4.163c0.051,0.682-0.042,1.318-0.042,2.004
	c-0.042,0.679-0.081,1.315-0.172,1.952c-0.297,2.551-0.973,4.976-1.7,7.104c-0.768,2.164-1.658,3.991-2.385,5.569
	c-0.759,1.526-1.36,2.759-1.866,3.568c-0.47,0.849-0.682,1.321-0.682,1.321l9.227,9.228H175.56v144.228
	c0,1.274,0.042,2.509,0.172,3.783l0.006,0.01c0.845,9.119,4.742,18.013,11.724,24.992L361.486,711.64
	c97.883-21.402,177.691-90.938,213.447-182.571L439.099,393.259z"/>
<path fill="#34495E" d="M397.218,508.83c0,10.423-3.967,20.844-11.924,28.784c-7.951,7.962-18.363,11.93-28.781,11.93H216.247
	c-10.412,0-20.834-3.968-28.779-11.93c-7.953-7.94-11.929-18.361-11.929-28.784V364.62h221.679V508.83z"/>
<path fill="#5D7D99" d="M216.247,523.59c-3.932,0-7.637-1.542-10.417-4.319c-2.801-2.795-4.336-6.507-4.336-10.44V364.643
	c0-0.006-0.012-0.015-0.012-0.023H186.67c0,0.01-0.015,0.018-0.015,0.023V508.83c0,7.896,3.083,15.334,8.683,20.926
	c5.581,5.581,13.007,8.655,20.906,8.655c4.102,0,7.418-3.316,7.418-7.405C223.665,526.902,220.352,523.59,216.247,523.59z"/>
<path fill="#283A4D" d="M420.205,487.043h-22.986v-15.271h22.986c3.068,0,5.953-1.186,8.123-3.36
	c2.141-2.17,3.348-5.037,3.348-8.116v-48.144c0-3.066-1.207-5.941-3.348-8.107c-2.17-2.173-5.055-3.358-8.123-3.358h-22.986v-15.284
	h22.986c7.152,0,13.863,2.79,18.918,7.837c5.045,5.054,7.822,11.763,7.822,18.911v48.144c0,7.153-2.775,13.867-7.822,18.918
	C434.07,484.268,427.357,487.043,420.205,487.043z"/>
<g>
	<path fill="#FFFFFF" d="M207.589,355.375c0,0,0.217-0.464,0.675-1.304c0.498-0.821,1.09-2.068,1.872-3.571
		c0.711-1.572,1.601-3.414,2.36-5.569c0.735-2.143,1.402-4.548,1.715-7.12c0.074-0.637,0.125-1.286,0.185-1.961
		c0-0.652,0.069-1.318,0.039-2c0-1.349-0.146-2.738-0.372-4.146c-0.241-1.398-0.527-2.851-0.967-4.298
		c-0.45-1.462-0.958-2.955-1.551-4.465c-1.217-3.029-2.777-6.152-4.492-9.391c-1.729-3.217-3.616-6.542-5.527-9.986
		c-1.887-3.438-3.774-7.021-5.458-10.735c-1.685-3.732-3.143-7.647-4.137-11.659c-0.494-1.992-0.872-4.033-1.068-6.06
		c-0.203-2.033-0.277-4.066-0.155-6.031c0.253-3.94,1.185-7.655,2.563-10.719c1.391-3.077,3.11-5.568,4.827-7.566
		c1.679-1.965,3.36-3.429,4.777-4.577c1.45-1.102,2.599-1.893,3.429-2.366c0.825-0.506,1.289-0.759,1.289-0.759
		s-0.253,0.449-0.693,1.307c-0.483,0.809-1.095,2.053-1.86,3.577c-0.75,1.557-1.643,3.405-2.375,5.563
		c-0.735,2.152-1.396,4.539-1.711,7.128c-0.086,0.628-0.119,1.274-0.187,1.926c0,0.693-0.071,1.339-0.021,2.009
		c0,1.363,0.14,2.742,0.369,4.164c0.253,1.404,0.536,2.843,0.973,4.295c0.456,1.446,0.964,2.955,1.553,4.468
		c1.214,3.021,2.774,6.152,4.503,9.372c1.732,3.223,3.602,6.558,5.512,10.004c1.908,3.453,3.789,7.021,5.462,10.753
		c1.7,3.732,3.152,7.61,4.141,11.631c0.498,2.03,0.839,4.036,1.08,6.075c0.166,2.021,0.271,4.055,0.133,6.023
		c-0.276,3.959-1.208,7.655-2.583,10.719c-1.384,3.087-3.129,5.577-4.807,7.546c-1.69,1.988-3.39,3.455-4.801,4.596
		c-1.444,1.128-2.613,1.904-3.429,2.376C208.018,355.115,207.589,355.375,207.589,355.375z"/>
	<path fill="#FFFFFF" d="M246.767,355.375c0,0,0.164-0.321,0.491-0.904c0.318-0.572,0.776-1.432,1.292-2.477
		c0.515-1.099,1.139-2.366,1.641-3.879c0.515-1.479,0.977-3.161,1.196-4.941c0.053-0.45,0.086-0.898,0.125-1.354
		c0-0.458,0.051-0.916,0.009-1.393c0-0.935-0.086-1.898-0.238-2.879c-0.167-0.979-0.375-1.977-0.666-2.977
		c-0.321-1.03-0.673-2.063-1.09-3.113c-0.841-2.099-1.925-4.271-3.119-6.516c-1.2-2.221-2.507-4.539-3.839-6.938
		c-1.307-2.387-2.616-4.869-3.789-7.458c-1.167-2.604-2.169-5.307-2.866-8.084c-0.351-1.405-0.613-2.811-0.744-4.219
		c-0.14-1.417-0.211-2.821-0.116-4.193c0.181-2.735,0.824-5.298,1.78-7.432c0.971-2.146,2.17-3.879,3.345-5.26
		c1.167-1.372,2.349-2.387,3.337-3.177c0.979-0.768,1.792-1.307,2.375-1.652c0.58-0.356,0.872-0.526,0.872-0.526
		s-0.155,0.31-0.47,0.908c-0.33,0.563-0.748,1.429-1.286,2.482c-0.53,1.095-1.14,2.365-1.649,3.863
		c-0.517,1.494-0.964,3.152-1.196,4.955c-0.051,0.426-0.074,0.898-0.119,1.349c0,0.464-0.059,0.923-0.018,1.402
		c0,0.926,0.096,1.891,0.247,2.866c0.172,0.988,0.375,1.988,0.679,2.991c0.318,1.003,0.669,2.048,1.086,3.102
		c0.851,2.099,1.919,4.263,3.119,6.51c1.182,2.25,2.526,4.545,3.837,6.943c1.301,2.396,2.631,4.885,3.807,7.478
		c1.152,2.581,2.175,5.283,2.858,8.074c0.333,1.404,0.595,2.811,0.748,4.219c0.119,1.417,0.185,2.813,0.086,4.184
		c-0.188,2.754-0.824,5.325-1.79,7.445c-0.958,2.143-2.175,3.865-3.327,5.238c-1.179,1.378-2.358,2.402-3.345,3.194
		c-0.994,0.782-1.797,1.318-2.375,1.658C247.077,355.197,246.767,355.375,246.767,355.375z"/>
</g>
<rect x="216.235" y="549.556" fill="#283A4D" width="139.715" height="10.443"/>
</svg>
